# Blender v2.82 (sub 7) OBJ File: 'MyHouse2.blend'
# www.blender.org
o Plane
v -9.969061 0.000000 9.969061
v 9.969061 0.000000 9.969061
v -9.969061 0.000000 -9.969061
v 9.969061 0.000000 -9.969061
v -9.553600 0.000000 -9.553600
v -9.553600 0.000000 9.553600
v 9.553600 0.000000 9.553600
v 9.553600 0.000000 -9.553600
v -9.969061 6.038477 9.969061
v 9.969061 6.038477 9.969061
v -9.969061 6.038477 -9.969061
v 9.969061 6.038477 -9.969061
v -9.553600 6.038477 -9.553600
v -9.553600 6.038477 9.553600
v 9.553600 6.038477 9.553600
v 9.553600 6.038477 -9.553600
vt 0.020838 0.020838
vt 0.020838 0.979162
vt 0.000000 1.000000
vt 0.000000 0.000000
vt 0.020838 0.020838
vt 0.000000 0.000000
vt 0.000000 1.000000
vt 0.020838 0.979162
vt 0.979162 0.020838
vt 1.000000 0.000000
vt 0.979162 0.979162
vt 1.000000 1.000000
vt 0.979162 0.020838
vt 1.000000 0.000000
vt 0.979162 0.979162
vt 1.000000 1.000000
vn 0.0000 1.0000 0.0000
vn 0.0000 -1.0000 0.0000
vn 1.0000 0.0000 0.0000
vn -1.0000 0.0000 0.0000
vn 0.0000 0.0000 -1.0000
vn 0.0000 0.0000 1.0000
s off
f 14/1/1 13/2/1 11/3/1 9/4/1
f 6/5/2 1/6/2 3/7/2 5/8/2
f 7/9/2 2/10/2 1/6/2 6/5/2
f 8/11/2 4/12/2 2/10/2 7/9/2
f 5/8/2 3/7/2 4/12/2 8/11/2
f 15/13/1 14/1/1 9/4/1 10/14/1
f 16/15/1 15/13/1 10/14/1 12/16/1
f 13/2/1 16/15/1 12/16/1 11/3/1
f 2/10/3 4/12/3 12/16/3 10/14/3
f 3/7/4 1/6/4 9/4/4 11/3/4
f 8/11/4 7/9/4 15/13/4 16/15/4
f 6/5/3 5/8/3 13/2/3 14/1/3
f 4/12/5 3/7/5 11/3/5 12/16/5
f 1/6/6 2/10/6 10/14/6 9/4/6
f 5/8/6 8/11/6 16/15/6 13/2/6
f 7/9/5 6/5/5 14/1/5 15/13/5
